<?xml version="1.0" encoding="UTF-8"?>
<!DOCTYPE svg PUBLIC "-//W3C//DTD SVG 1.1//EN" "http://www.w3.org/Graphics/SVG/1.1/DTD/svg11.dtd">
<svg xmlns="http://www.w3.org/2000/svg" version="1.1" width="310px" height="291px" style="shape-rendering:geometricPrecision; text-rendering:geometricPrecision; image-rendering:optimizeQuality; fill-rule:evenodd; clip-rule:evenodd" xmlns:xlink="http://www.w3.org/1999/xlink">
<g><path style="opacity:1" fill="#fefefe" d="M -0.5,-0.5 C 102.833,-0.5 206.167,-0.5 309.5,-0.5C 309.5,96.5 309.5,193.5 309.5,290.5C 206.167,290.5 102.833,290.5 -0.5,290.5C -0.5,193.5 -0.5,96.5 -0.5,-0.5 Z"/></g>
<g><path style="opacity:1" fill="#3991bc" d="M 136.5,17.5 C 193.752,13.3756 237.586,35.3756 268,83.5C 291.28,127.835 291.28,172.169 268,216.5C 241.361,258.75 202.861,280.75 152.5,282.5C 95.377,279.507 54.877,252.173 31,200.5C 11.2908,144.183 22.1242,94.6831 63.5,52C 84.5359,33.4816 108.869,21.9816 136.5,17.5 Z"/></g>
<g><path style="opacity:1" fill="#fdfdfd" d="M 121.5,91.5 C 116.622,93.5393 112.788,96.8726 110,101.5C 106.327,107.841 103.494,114.508 101.5,121.5C 97.3624,130.06 100.029,134.56 109.5,135C 113.44,133.114 116.94,130.614 120,127.5C 124.11,117.396 130.943,109.896 140.5,105C 149.804,102.742 158.137,104.742 165.5,111C 188.469,131.636 210.469,153.302 231.5,176C 243.473,171.443 255.306,166.276 267,160.5C 260.279,211.233 232.446,244.399 183.5,260C 130.616,271.292 88.449,255.125 57,211.5C 46.7169,195.16 41.2169,177.494 40.5,158.5C 49.5545,163.694 58.8878,168.361 68.5,172.5C 77.4095,164.522 86.2428,164.522 95,172.5C 96.7411,175.309 97.9078,178.309 98.5,181.5C 104.816,180.576 109.983,182.576 114,187.5C 115.429,190.762 116.929,193.929 118.5,197C 129.416,197.585 135.416,203.252 136.5,214C 135.616,218.882 134.116,223.382 132,227.5C 136.133,230.631 139.966,234.131 143.5,238C 149.214,242.824 154.714,242.657 160,237.5C 161.25,234.923 161.584,232.257 161,229.5C 154.667,221.833 147.667,214.833 140,208.5C 139.28,206.888 139.446,205.388 140.5,204C 142.788,203.582 144.788,204.249 146.5,206C 155.203,214.371 164.203,222.371 173.5,230C 183.889,230.95 187.722,226.45 185,216.5C 174.667,206.5 164.333,196.5 154,186.5C 152.968,181.858 154.468,180.692 158.5,183C 169.603,194.038 181.27,204.372 193.5,214C 205.486,217.678 209.986,213.511 207,201.5C 194.333,189.5 181.667,177.5 169,165.5C 167.968,160.858 169.468,159.692 173.5,162C 186.167,173.333 198.833,184.667 211.5,196C 221.683,200.733 226.85,197.567 227,186.5C 224.588,182.084 221.422,178.251 217.5,175C 198.31,157.566 179.31,139.899 160.5,122C 154.288,116.545 147.288,115.212 139.5,118C 135.21,124.08 131.043,130.247 127,136.5C 119.113,146.745 109.28,149.245 97.5,144C 89.2191,137.732 86.7191,129.565 90,119.5C 92.3626,114.079 94.5293,108.579 96.5,103C 84.3652,96.7657 72.3652,90.2657 60.5,83.5C 80.4346,55.8578 107.435,40.0244 141.5,36C 184.301,32.8045 218.801,47.9712 245,81.5C 245.667,82.1667 245.667,82.8333 245,83.5C 233.212,89.311 221.379,94.9777 209.5,100.5C 191.611,90.8055 173.445,81.8055 155,73.5C 143.006,78.0786 131.839,84.0786 121.5,91.5 Z"/></g>
<g><path style="opacity:1" fill="#2380b2" d="M 121.5,91.5 C 118.562,93.934 115.729,96.6007 113,99.5C 108.773,107.326 104.94,114.659 101.5,121.5C 103.494,114.508 106.327,107.841 110,101.5C 112.788,96.8726 116.622,93.5393 121.5,91.5 Z"/></g>
<g><path style="opacity:1" fill="#368fbb" d="M 79.5,175.5 C 89.2888,176.1 92.1221,180.767 88,189.5C 84.3763,194.486 79.5429,196.319 73.5,195C 68.3309,190.437 68.1643,185.603 73,180.5C 74.9651,178.45 77.1318,176.783 79.5,175.5 Z"/></g>
<g><path style="opacity:1" fill="#368fbb" d="M 98.5,190.5 C 106.641,190.481 109.808,194.481 108,202.5C 105.435,208.567 100.935,212.233 94.5,213.5C 90.27,212.77 87.9367,210.27 87.5,206C 89.035,199.302 92.7016,194.135 98.5,190.5 Z"/></g>
<g><path style="opacity:1" fill="#368ebb" d="M 116.5,207.5 C 124.773,205.941 128.273,209.274 127,217.5C 123.204,224.66 117.371,228.493 109.5,229C 108.069,228.535 106.903,227.701 106,226.5C 105.31,217.882 108.81,211.548 116.5,207.5 Z"/></g>
</svg>
